<?xml version="1.0" encoding="utf-8"?><!-- Uploaded to: SVG Repo, www.svgrepo.com, Generator: SVG Repo Mixer Tools -->
<svg width="800px" height="800px" viewBox="0 0 24 24" fill="none" xmlns="http://www.w3.org/2000/svg">
    <path d="M7 21V11.6C7 11.0399 7 10.7599 7.10899 10.546C7.20487 10.3578 7.35785 10.2048 7.54601 10.109C7.75992 9.99996 8.03995 9.99996 8.6 9.99996H15.4C15.9601 9.99996 16.2401 9.99996 16.454 10.109C16.6422 10.2048 16.7951 10.3578 16.891 10.546C17 10.7599 17 11.0399 17 11.6V21M10 14H14M10 18H14M3 10.4881V19.4C3 19.96 3 20.24 3.10899 20.454C3.20487 20.6421 3.35785 20.7951 3.54601 20.891C3.75992 21 4.03995 21 4.6 21H19.4C19.9601 21 20.2401 21 20.454 20.891C20.6422 20.7951 20.7951 20.6421 20.891 20.454C21 20.24 21 19.96 21 19.4V10.4881C21 9.41436 21 8.87747 20.8368 8.40316C20.6925 7.98371 20.457 7.60148 20.1472 7.28399C19.797 6.92498 19.3174 6.68357 18.3583 6.20075L14.1583 4.08645C13.3671 3.68819 12.9716 3.48905 12.5564 3.41069C12.1887 3.34129 11.8113 3.34129 11.4436 3.41069C11.0284 3.48905 10.6329 3.68818 9.84171 4.08645L5.64171 6.20075C4.6826 6.68357 4.20304 6.92498 3.85275 7.28399C3.54298 7.60148 3.30746 7.98371 3.16317 8.40316C3 8.87747 3 9.41437 3 10.4881Z"
          stroke="#3f5367"
          stroke-width="2"
          stroke-linecap="round"
          stroke-linejoin="round"/>
</svg>